<?xml version="1.0" encoding="UTF-8"?>
<svg id="Calque_1" data-name="Calque 1" xmlns="http://www.w3.org/2000/svg" viewBox="0 0 504 527.78">
  <defs>
    <style>
      .cls-1 {
        fill: #fff;
      }
    </style>
  </defs>
  <g>
    <path class="cls-1" d="M124.59,376.41c1.08-.18,2.5-.34,4.31-.34,2.22,0,3.85.52,4.88,1.45.96.83,1.52,2.09,1.52,3.64s-.46,2.81-1.34,3.72c-1.19,1.27-3.12,1.91-5.32,1.91-.67,0-1.29-.03-1.81-.15v6.97h-2.25v-17.19ZM126.83,384.8c.49.13,1.11.18,1.86.18,2.71,0,4.36-1.32,4.36-3.72s-1.63-3.41-4.11-3.41c-.98,0-1.73.08-2.12.18v6.76Z"/>
    <path class="cls-1" d="M138.12,375.28h2.27v18.33h-2.27v-18.33Z"/>
    <path class="cls-1" d="M151.13,393.61l-.18-1.57h-.08c-.7.98-2.04,1.86-3.82,1.86-2.53,0-3.82-1.78-3.82-3.59,0-3.02,2.69-4.67,7.51-4.65v-.26c0-1.03-.28-2.89-2.84-2.89-1.16,0-2.38.36-3.25.93l-.52-1.5c1.03-.67,2.53-1.11,4.1-1.11,3.82,0,4.75,2.61,4.75,5.11v4.67c0,1.08.05,2.14.21,2.99h-2.07ZM150.79,387.23c-2.48-.05-5.29.39-5.29,2.81,0,1.47.98,2.17,2.14,2.17,1.63,0,2.66-1.03,3.02-2.09.08-.23.13-.49.13-.72v-2.17Z"/>
    <path class="cls-1" d="M159.29,377.52v3.59h3.25v1.73h-3.25v6.74c0,1.55.44,2.43,1.7,2.43.59,0,1.03-.08,1.32-.15l.1,1.7c-.44.18-1.14.31-2.01.31-1.06,0-1.91-.34-2.45-.96-.65-.67-.88-1.78-.88-3.25v-6.82h-1.94v-1.73h1.94v-3l2.22-.59Z"/>
    <path class="cls-1" d="M166.21,387.77c.05,3.07,2.01,4.34,4.29,4.34,1.63,0,2.61-.28,3.46-.65l.39,1.63c-.8.36-2.17.77-4.16.77-3.85,0-6.14-2.53-6.14-6.3s2.22-6.74,5.86-6.74c4.08,0,5.16,3.59,5.16,5.89,0,.46-.05.83-.08,1.06h-8.78ZM172.87,386.14c.03-1.45-.59-3.69-3.15-3.69-2.3,0-3.3,2.12-3.49,3.69h6.64Z"/>
    <path class="cls-1" d="M184.79,393.61l-.18-1.57h-.08c-.7.98-2.04,1.86-3.82,1.86-2.53,0-3.82-1.78-3.82-3.59,0-3.02,2.69-4.67,7.51-4.65v-.26c0-1.03-.28-2.89-2.84-2.89-1.16,0-2.38.36-3.25.93l-.52-1.5c1.03-.67,2.53-1.11,4.1-1.11,3.82,0,4.75,2.61,4.75,5.11v4.67c0,1.08.05,2.14.21,2.99h-2.07ZM184.46,387.23c-2.48-.05-5.29.39-5.29,2.81,0,1.47.98,2.17,2.14,2.17,1.63,0,2.66-1.03,3.02-2.09.08-.23.13-.49.13-.72v-2.17Z"/>
    <path class="cls-1" d="M200.78,390.2c0,1.29.03,2.43.1,3.41h-2.01l-.13-2.04h-.05c-.59,1.01-1.91,2.32-4.13,2.32-1.96,0-4.31-1.08-4.31-5.47v-7.31h2.27v6.92c0,2.38.72,3.98,2.79,3.98,1.52,0,2.58-1.06,2.99-2.07.13-.34.21-.75.21-1.16v-7.67h2.27v9.09Z"/>
    <path class="cls-1" d="M203.8,392.26c0-.96.65-1.63,1.55-1.63s1.52.67,1.52,1.63-.59,1.63-1.55,1.63c-.9,0-1.52-.7-1.52-1.63Z"/>
    <path class="cls-1" d="M215.24,376.41c1.08-.18,2.5-.34,4.31-.34,2.22,0,3.85.52,4.88,1.45.96.83,1.52,2.09,1.52,3.64s-.46,2.81-1.34,3.72c-1.19,1.27-3.12,1.91-5.32,1.91-.67,0-1.29-.03-1.81-.15v6.97h-2.25v-17.19ZM217.48,384.8c.49.13,1.11.18,1.86.18,2.71,0,4.36-1.32,4.36-3.72s-1.63-3.41-4.1-3.41c-.98,0-1.73.08-2.12.18v6.76Z"/>
    <path class="cls-1" d="M239.56,387.26c0,4.62-3.2,6.64-6.22,6.64-3.38,0-5.99-2.48-5.99-6.43,0-4.18,2.74-6.64,6.2-6.64s6.02,2.61,6.02,6.43ZM229.64,387.38c0,2.74,1.57,4.8,3.8,4.8s3.79-2.04,3.79-4.85c0-2.12-1.06-4.8-3.74-4.8s-3.85,2.48-3.85,4.85Z"/>
    <path class="cls-1" d="M253.21,375.28v15.1c0,1.11.03,2.38.1,3.23h-2.04l-.1-2.17h-.05c-.7,1.39-2.22,2.45-4.26,2.45-3.02,0-5.34-2.56-5.34-6.35-.03-4.16,2.56-6.71,5.6-6.71,1.91,0,3.2.9,3.77,1.91h.05v-7.46h2.27ZM250.94,386.2c0-.28-.03-.67-.1-.96-.34-1.45-1.57-2.63-3.28-2.63-2.35,0-3.74,2.07-3.74,4.83,0,2.53,1.24,4.62,3.69,4.62,1.52,0,2.92-1.01,3.33-2.71.08-.31.1-.62.1-.98v-2.17Z"/>
    <path class="cls-1" d="M265.89,393.14c-.59.31-1.91.72-3.59.72-3.77,0-6.22-2.56-6.22-6.38s2.63-6.64,6.71-6.64c1.34,0,2.53.34,3.15.65l-.52,1.76c-.54-.31-1.39-.59-2.63-.59-2.87,0-4.42,2.12-4.42,4.72,0,2.89,1.86,4.67,4.34,4.67,1.29,0,2.14-.34,2.79-.62l.39,1.7Z"/>
    <path class="cls-1" d="M275.47,393.61l-.18-1.57h-.08c-.7.98-2.04,1.86-3.82,1.86-2.53,0-3.82-1.78-3.82-3.59,0-3.02,2.69-4.67,7.51-4.65v-.26c0-1.03-.28-2.89-2.84-2.89-1.16,0-2.38.36-3.25.93l-.52-1.5c1.03-.67,2.53-1.11,4.1-1.11,3.82,0,4.75,2.61,4.75,5.11v4.67c0,1.08.05,2.14.21,2.99h-2.07ZM275.13,387.23c-2.48-.05-5.29.39-5.29,2.81,0,1.47.98,2.17,2.14,2.17,1.63,0,2.66-1.03,3.02-2.09.08-.23.13-.49.13-.72v-2.17Z"/>
    <path class="cls-1" d="M280.68,391.28c.67.44,1.86.9,3,.9,1.65,0,2.43-.83,2.43-1.86,0-1.08-.65-1.68-2.32-2.3-2.25-.8-3.3-2.04-3.3-3.54,0-2.01,1.63-3.67,4.31-3.67,1.27,0,2.38.36,3.07.77l-.57,1.65c-.49-.31-1.39-.72-2.56-.72-1.34,0-2.09.77-2.09,1.7,0,1.03.75,1.5,2.38,2.12,2.17.83,3.28,1.91,3.28,3.77,0,2.19-1.7,3.74-4.67,3.74-1.37,0-2.63-.34-3.51-.85l.57-1.73Z"/>
    <path class="cls-1" d="M293.96,377.52v3.59h3.25v1.73h-3.25v6.74c0,1.55.44,2.43,1.7,2.43.59,0,1.03-.08,1.32-.15l.1,1.7c-.44.18-1.14.31-2.01.31-1.06,0-1.91-.34-2.45-.96-.65-.67-.88-1.78-.88-3.25v-6.82h-1.94v-1.73h1.94v-3l2.22-.59Z"/>
    <path class="cls-1" d="M299.15,392.26c0-.96.65-1.63,1.55-1.63s1.52.67,1.52,1.63-.59,1.63-1.55,1.63c-.9,0-1.52-.7-1.52-1.63Z"/>
    <path class="cls-1" d="M325.25,385.96c-.13-2.43-.28-5.34-.26-7.51h-.08c-.59,2.04-1.32,4.21-2.19,6.61l-3.07,8.44h-1.7l-2.81-8.29c-.83-2.45-1.52-4.7-2.01-6.76h-.05c-.05,2.17-.18,5.09-.34,7.69l-.46,7.46h-2.14l1.21-17.4h2.87l2.97,8.42c.72,2.14,1.32,4.05,1.76,5.86h.08c.44-1.76,1.06-3.67,1.83-5.86l3.1-8.42h2.87l1.08,17.4h-2.19l-.44-7.64Z"/>
    <path class="cls-1" d="M332.68,387.77c.05,3.07,2.01,4.34,4.29,4.34,1.63,0,2.61-.28,3.46-.65l.39,1.63c-.8.36-2.17.77-4.16.77-3.85,0-6.14-2.53-6.14-6.3s2.22-6.74,5.86-6.74c4.08,0,5.16,3.59,5.16,5.89,0,.46-.05.83-.08,1.06h-8.78ZM339.34,386.14c.03-1.45-.59-3.69-3.15-3.69-2.3,0-3.3,2.12-3.49,3.69h6.64ZM339.89,375.71l-3.15,3.69h-1.63l2.27-3.69h2.5Z"/>
    <path class="cls-1" d="M355.15,375.28v15.1c0,1.11.03,2.38.1,3.23h-2.04l-.1-2.17h-.05c-.7,1.39-2.22,2.45-4.26,2.45-3.02,0-5.34-2.56-5.34-6.35-.03-4.16,2.56-6.71,5.6-6.71,1.91,0,3.2.9,3.77,1.91h.05v-7.46h2.27ZM352.87,386.2c0-.28-.03-.67-.1-.96-.34-1.45-1.57-2.63-3.28-2.63-2.35,0-3.74,2.07-3.74,4.83,0,2.53,1.24,4.62,3.69,4.62,1.52,0,2.92-1.01,3.33-2.71.08-.31.1-.62.1-.98v-2.17Z"/>
    <path class="cls-1" d="M361.45,377.6c.03.77-.54,1.39-1.45,1.39-.8,0-1.37-.62-1.37-1.39s.59-1.42,1.42-1.42,1.39.62,1.39,1.42ZM358.91,393.61v-12.5h2.27v12.5h-2.27Z"/>
    <path class="cls-1" d="M371.88,393.61l-.18-1.57h-.08c-.7.98-2.04,1.86-3.82,1.86-2.53,0-3.82-1.78-3.82-3.59,0-3.02,2.69-4.67,7.51-4.65v-.26c0-1.03-.28-2.89-2.84-2.89-1.16,0-2.38.36-3.25.93l-.52-1.5c1.03-.67,2.53-1.11,4.1-1.11,3.82,0,4.75,2.61,4.75,5.11v4.67c0,1.08.05,2.14.21,2.99h-2.07ZM371.54,387.23c-2.48-.05-5.29.39-5.29,2.81,0,1.47.98,2.17,2.14,2.17,1.63,0,2.66-1.03,3.02-2.09.08-.23.13-.49.13-.72v-2.17Z"/>
    <path class="cls-1" d="M377.09,391.28c.67.44,1.86.9,3,.9,1.65,0,2.43-.83,2.43-1.86,0-1.08-.65-1.68-2.32-2.3-2.25-.8-3.3-2.04-3.3-3.54,0-2.01,1.63-3.67,4.31-3.67,1.26,0,2.38.36,3.07.77l-.57,1.65c-.49-.31-1.39-.72-2.56-.72-1.34,0-2.09.77-2.09,1.7,0,1.03.75,1.5,2.38,2.12,2.17.83,3.28,1.91,3.28,3.77,0,2.19-1.7,3.74-4.67,3.74-1.37,0-2.63-.34-3.51-.85l.57-1.73Z"/>
  </g>
  <g>
    <path class="cls-1" d="M254.27,220.24l24.66-20.79c1.23-1.05,2.9-1.28,4.36-.6s2.36,2.12,2.36,3.72v22.26s0,22.26,0,22.26c0,1.6-.9,3.04-2.36,3.72s-3.13.45-4.36-.6l-24.66-20.79c-1.38-1.15-2.19-2.8-2.27-4.59.08-1.79.89-3.44,2.27-4.59Z"/>
    <path class="cls-1" d="M304.52,295.2l-76.31-62.41c-2.27-1.99-3.58-4.89-3.58-7.96s1.31-5.97,3.59-7.96l.1-.09,76.23-62.34c2.76-2.38,4.48-7.13,4.45-12.37l-.03-8.62.02-7.02-110.29,89.84c-.76.66-1.47,1.53-2.08,2.55-2.17,3.65-2.17,8.37,0,12.02.61,1.02,1.32,1.89,2.12,2.58l110.25,89.81-.02-7.01.03-8.62c.03-5.25-1.69-9.99-4.48-12.4Z"/>
  </g>
</svg>