<?xml version="1.0" encoding="UTF-8"?>
<svg id="Calque_1" data-name="Calque 1" xmlns="http://www.w3.org/2000/svg" viewBox="0 0 64 64">
  <defs>
    <style>
      .cls-1 {
        fill: #0b0b0b;
      }

      .cls-2 {
        fill: #ce1b1d;
      }
    </style>
  </defs>
  <path class="cls-2" d="M32.57,30.84l6.24-5.26c.31-.27.73-.32,1.1-.15s.6.54.6.94v5.63s0,5.63,0,5.63c0,.4-.23.77-.6.94s-.79.11-1.1-.15l-6.24-5.26c-.35-.29-.55-.71-.57-1.16.02-.45.23-.87.57-1.16Z"/>
  <path class="cls-1" d="M45.29,49.8l-19.3-15.79c-.57-.5-.91-1.24-.91-2.01s.33-1.51.91-2.01l.03-.02,19.28-15.77c.7-.6,1.13-1.8,1.13-3.13v-2.18s0-1.78,0-1.78l-27.9,22.72c-.19.17-.37.39-.53.64-.55.92-.55,2.12,0,3.04.15.26.33.48.54.65l27.89,22.72v-1.77s0-2.18,0-2.18c0-1.33-.43-2.53-1.13-3.14Z"/>
</svg>